<svg id="svg" version="1.1" width="512" height="512" xmlns="http://www.w3.org/2000/svg" xmlns:xlink="http://www.w3.org/1999/xlink" style="display: block;"><g id="svgg"><path id="path0" d="" stroke="none" fill="#000000" fill-rule="evenodd"></path><path id="path1" d="" stroke="none" fill="#555555" fill-rule="evenodd"></path><path id="path2" d="" stroke="none" fill="#999999" fill-rule="evenodd"></path><path id="path3" d="" stroke="none" fill="#a2a2a2" fill-rule="evenodd"></path><path id="path4" d="" stroke="none" fill="#b6b6b6" fill-rule="evenodd"></path><path id="path5" d="M192.656 115.498 C 192.434 115.858,193.644 116.207,195.345 116.274 C 197.046 116.340,198.438 116.046,198.438 115.619 C 198.438 114.681,193.229 114.572,192.656 115.498 " stroke="none" fill="#ffffff" fill-rule="evenodd"></path><path id="path6" d="" stroke="none" fill="#9eb6b6" fill-rule="evenodd"></path><path id="path7" d="M189.411 25.135 C 188.157 25.470,185.016 25.805,182.432 25.879 C 176.493 26.048,155.772 30.376,146.301 33.426 C 142.333 34.704,139.289 35.422,139.536 35.022 C 139.783 34.622,138.635 34.872,136.985 35.578 C 135.335 36.283,133.457 37.058,132.813 37.299 C 132.168 37.540,131.113 38.154,130.469 38.662 C 129.824 39.170,128.066 40.056,126.563 40.630 C 99.872 50.814,65.396 76.180,49.589 97.266 C 24.990 130.079,37.715 146.559,92.969 153.444 C 106.029 155.072,147.123 157.745,160.043 157.807 C 160.843 157.811,160.984 158.625,160.621 161.133 C 156.555 189.198,154.872 253.183,157.647 274.219 C 159.827 290.749,160.385 294.298,161.080 296.066 C 161.497 297.125,162.038 300.384,162.283 303.308 C 162.529 306.232,162.929 308.425,163.174 308.180 C 163.419 307.936,163.994 309.071,164.452 310.704 L 165.286 313.672 194.948 313.451 C 211.262 313.329,229.883 313.562,236.328 313.968 C 242.773 314.374,248.194 314.560,248.375 314.382 C 249.764 313.009,243.572 293.963,239.127 285.938 C 237.818 283.574,236.741 281.079,236.733 280.393 C 236.725 279.707,236.055 278.380,235.243 277.444 C 234.431 276.508,233.344 274.608,232.828 273.223 C 231.785 270.423,231.102 268.949,228.861 264.652 C 228.022 263.043,227.179 260.504,226.987 259.009 C 226.796 257.514,226.288 255.635,225.860 254.834 C 224.670 252.612,223.251 241.849,221.152 219.141 C 220.303 209.957,219.551 189.739,219.278 168.750 L 219.141 158.203 228.516 158.151 C 233.672 158.122,243.340 157.855,250.000 157.558 C 290.591 155.748,297.761 155.354,302.344 154.677 C 305.137 154.265,309.355 153.737,311.719 153.504 C 314.082 153.271,320.762 152.188,326.563 151.096 C 373.456 142.275,379.514 122.737,346.484 86.843 C 342.427 82.433,326.399 68.499,320.793 64.507 C 314.280 59.870,305.878 54.430,301.631 52.103 C 299.230 50.787,296.801 49.248,296.233 48.683 C 295.665 48.118,294.681 47.656,294.046 47.656 C 292.424 47.656,288.158 45.393,286.493 43.651 C 285.724 42.846,284.395 42.188,283.538 42.188 C 281.492 42.187,276.380 40.032,275.659 38.865 C 275.347 38.360,274.280 37.907,273.288 37.858 C 270.686 37.731,265.454 35.878,264.224 34.648 C 263.644 34.068,262.228 33.592,261.077 33.589 C 258.419 33.584,252.865 32.065,252.317 31.194 C 252.087 30.829,250.329 30.367,248.411 30.167 C 243.164 29.621,239.844 28.791,239.844 28.027 C 239.844 27.651,237.998 27.335,235.742 27.325 C 233.486 27.314,230.059 26.922,228.125 26.454 C 222.284 25.040,193.442 24.057,189.411 25.135 M245.313 105.087 C 258.885 106.038,271.841 107.190,276.953 107.902 C 279.961 108.320,284.531 108.850,287.109 109.079 C 289.688 109.307,292.131 109.819,292.539 110.216 C 292.947 110.613,294.831 110.938,296.724 110.938 C 302.200 110.938,324.694 116.190,330.263 118.770 C 332.095 119.618,335.138 121.028,337.024 121.904 C 347.061 126.558,345.738 133.657,334.137 137.400 C 322.676 141.099,286.306 144.618,262.891 144.294 C 261.172 144.270,250.567 144.487,239.325 144.775 L 218.885 145.300 219.322 131.762 C 219.734 119.001,219.674 118.184,218.278 117.535 C 216.182 116.561,180.802 116.211,176.563 117.123 C 174.629 117.539,171.414 118.091,169.419 118.350 L 165.792 118.821 165.297 122.496 C 165.025 124.518,164.466 128.457,164.055 131.250 C 163.643 134.043,163.095 138.390,162.836 140.909 L 162.365 145.491 159.112 144.938 C 157.323 144.634,148.125 144.282,138.672 144.156 C 129.219 144.031,118.496 143.699,114.844 143.418 C 111.191 143.138,106.270 142.786,103.906 142.636 C 96.060 142.139,82.475 140.458,80.626 139.755 C 79.624 139.374,77.402 139.063,75.688 139.063 C 69.913 139.063,60.938 133.919,60.938 130.609 C 60.938 112.780,159.793 99.096,245.313 105.087 M111.328 179.735 C 109.180 180.116,105.488 180.644,103.125 180.908 C 100.762 181.173,97.422 182.016,95.703 182.783 C 93.984 183.551,91.172 184.622,89.453 185.164 C 87.734 185.706,84.969 186.833,83.307 187.668 C 81.646 188.504,79.597 189.320,78.754 189.482 C 71.793 190.823,52.514 206.728,42.017 219.791 C 34.354 229.327,32.900 232.718,33.075 240.643 L 33.203 246.464 39.063 249.526 L 44.922 252.588 62.500 252.661 C 79.774 252.733,89.662 252.277,95.556 251.137 L 98.533 250.561 98.377 257.507 C 98.292 261.327,98.445 266.914,98.717 269.922 C 98.990 272.930,99.436 279.258,99.708 283.984 C 99.980 288.711,100.523 292.983,100.914 293.477 C 101.305 293.971,101.692 296.960,101.775 300.118 C 101.857 303.276,102.336 306.290,102.839 306.816 C 103.342 307.342,103.990 309.627,104.277 311.894 C 105.314 320.058,102.701 319.613,132.813 316.761 C 151.043 315.035,149.640 315.628,146.819 310.842 C 145.527 308.651,143.927 306.316,143.264 305.653 C 141.391 303.779,136.669 293.178,135.919 289.161 C 135.548 287.173,134.697 283.625,134.028 281.275 C 133.360 278.926,132.813 276.002,132.813 274.778 C 132.813 273.555,132.469 271.911,132.049 271.127 C 131.629 270.342,131.093 267.289,130.858 264.342 C 130.623 261.395,130.107 257.930,129.712 256.641 C 129.041 254.452,128.633 250.804,128.823 248.693 C 128.925 247.573,132.611 246.375,138.086 245.684 L 142.188 245.166 142.188 241.724 C 142.188 237.986,142.014 237.876,136.719 238.245 C 135.215 238.350,133.633 238.708,133.203 239.041 C 129.426 241.971,126.704 240.012,127.262 234.766 C 127.354 233.906,127.212 231.709,126.948 229.883 L 126.467 226.563 121.241 226.561 C 118.367 226.560,112.852 227.102,108.984 227.766 C 105.117 228.430,100.834 229.145,99.466 229.356 L 96.980 229.739 97.432 236.725 C 97.962 244.904,98.538 244.367,88.672 244.899 C 84.805 245.108,79.004 245.552,75.781 245.885 C 59.421 247.579,45.312 246.018,45.313 242.513 C 45.313 238.567,64.563 230.128,80.078 227.272 C 82.656 226.797,86.172 226.067,87.891 225.650 C 95.151 223.886,97.529 223.455,102.344 223.032 C 105.137 222.787,108.301 222.258,109.375 221.858 C 111.481 221.074,125.081 219.613,136.133 218.984 L 142.969 218.595 142.992 213.008 C 143.018 206.550,144.211 189.364,144.955 184.725 L 145.463 181.560 138.552 180.355 C 130.777 178.999,117.217 178.691,111.328 179.735 M266.406 217.788 C 259.462 218.536,244.727 221.452,243.750 222.272 C 243.105 222.813,241.133 223.982,239.366 224.869 C 236.669 226.225,236.076 226.959,235.664 229.453 C 234.945 233.806,235.047 236.097,235.938 235.547 C 236.367 235.281,236.719 235.788,236.719 236.673 C 236.719 237.887,237.245 238.301,238.867 238.361 C 252.172 238.858,262.348 240.885,276.563 245.869 C 280.645 247.301,284.336 248.571,284.766 248.693 C 287.667 249.512,291.923 251.079,292.578 251.569 C 293.008 251.890,294.238 252.422,295.313 252.752 C 298.060 253.594,313.587 260.964,314.061 261.650 C 314.277 261.962,316.035 262.995,317.969 263.945 C 327.462 268.610,332.627 277.075,325.000 275.469 C 323.926 275.242,321.816 274.852,320.313 274.601 C 316.135 273.903,310.638 272.478,309.766 271.867 C 309.336 271.566,307.246 270.895,305.122 270.376 C 302.998 269.857,299.777 268.757,297.963 267.931 C 294.468 266.338,294.373 266.031,295.639 260.392 C 296.270 257.582,294.217 256.194,283.804 252.383 C 278.008 250.262,277.020 250.515,275.766 254.437 C 275.241 256.079,274.590 257.668,274.320 257.969 C 273.718 258.638,267.732 257.351,264.486 255.855 C 263.179 255.253,259.653 253.849,256.650 252.736 C 253.648 251.622,248.227 249.134,244.604 247.207 C 237.778 243.576,236.105 243.542,236.986 247.051 C 237.264 248.160,238.792 249.648,240.796 250.761 C 242.635 251.782,244.316 252.857,244.531 253.149 C 244.746 253.441,246.328 254.130,248.047 254.681 C 249.766 255.232,252.830 256.513,254.857 257.529 C 256.884 258.544,258.920 259.375,259.382 259.375 C 259.843 259.375,262.477 260.430,265.234 261.719 C 267.992 263.008,270.827 264.063,271.536 264.063 C 273.582 264.063,272.425 267.337,265.948 279.883 C 264.894 281.925,263.918 284.561,263.778 285.743 C 263.639 286.924,262.446 289.824,261.128 292.188 C 258.626 296.673,258.487 300.948,260.709 305.078 C 261.171 305.938,261.750 308.707,261.995 311.233 C 262.239 313.758,262.541 315.926,262.665 316.050 C 263.167 316.551,279.701 316.653,280.196 316.158 C 280.489 315.865,279.987 315.625,279.081 315.625 C 277.488 315.625,277.519 315.433,279.999 309.961 C 284.669 299.651,288.885 287.991,290.662 280.469 C 292.862 271.156,292.600 271.383,298.539 273.651 C 301.276 274.696,305.449 276.000,307.813 276.548 C 310.176 277.097,312.533 277.881,313.050 278.291 C 314.169 279.179,321.914 280.063,328.655 280.072 C 337.278 280.083,340.138 276.027,337.868 267.006 C 337.191 264.313,336.532 261.089,336.405 259.842 C 336.278 258.595,335.656 257.188,335.022 256.717 C 334.388 256.245,332.858 254.102,331.622 251.953 C 328.334 246.240,323.472 240.401,317.925 235.505 C 314.603 232.572,303.886 225.000,303.057 225.000 C 302.725 225.000,300.174 223.945,297.389 222.656 C 294.604 221.367,291.779 220.313,291.112 220.313 C 290.444 220.313,288.295 219.768,286.334 219.102 C 283.122 218.012,271.469 217.243,266.406 217.788 M173.828 321.301 C 172.109 321.677,169.192 321.825,167.345 321.630 C 165.497 321.436,162.554 321.599,160.804 321.992 C 159.054 322.385,154.062 323.030,149.710 323.424 C 145.358 323.819,140.073 324.510,137.965 324.960 C 135.858 325.411,131.852 325.954,129.064 326.169 C 126.275 326.383,123.605 326.862,123.130 327.234 C 122.654 327.606,118.839 328.750,114.651 329.776 C 106.899 331.674,104.996 332.813,109.575 332.813 C 110.975 332.813,113.348 333.168,114.849 333.602 C 116.350 334.037,118.924 334.564,120.569 334.775 C 125.059 335.349,127.565 336.055,129.275 337.226 C 130.123 337.806,131.665 338.281,132.702 338.281 C 136.286 338.281,149.277 345.339,150.194 347.785 C 150.462 348.500,151.616 349.555,152.759 350.129 C 155.109 351.309,156.483 353.575,157.770 358.398 L 158.656 361.719 191.037 361.719 L 223.417 361.719 224.588 358.915 C 227.973 350.814,239.659 342.584,252.891 338.983 C 256.242 338.071,259.336 337.051,259.766 336.716 C 260.764 335.937,272.062 333.617,272.759 334.048 C 273.048 334.226,275.867 333.869,279.025 333.253 C 282.182 332.637,286.523 331.892,288.672 331.596 L 292.578 331.058 287.500 329.537 C 284.707 328.701,280.137 327.666,277.344 327.237 C 274.551 326.809,271.932 326.130,271.523 325.729 C 271.115 325.328,269.006 324.985,266.836 324.966 C 264.666 324.947,261.309 324.576,259.375 324.141 C 257.441 323.706,253.124 323.201,249.781 323.018 C 246.437 322.835,243.083 322.354,242.326 321.949 C 241.569 321.544,238.791 321.408,236.152 321.647 C 233.514 321.887,230.716 321.795,229.935 321.444 C 228.004 320.574,177.740 320.447,173.828 321.301 M75.781 337.203 C 61.254 339.077,44.935 345.338,40.339 350.800 C 37.568 354.093,37.491 363.325,40.218 365.319 C 46.929 370.226,57.173 371.286,94.508 370.938 L 124.609 370.657 131.420 368.492 C 146.379 363.737,145.222 353.204,128.711 343.840 C 126.240 342.438,124.219 341.474,124.219 341.697 C 124.219 341.921,122.197 341.393,119.727 340.525 C 109.550 336.951,89.492 335.434,75.781 337.203 M295.313 339.149 C 292.949 339.446,289.348 339.503,287.310 339.276 C 285.272 339.048,283.162 339.218,282.622 339.653 C 281.493 340.561,274.625 342.156,269.647 342.666 C 258.429 343.815,244.379 357.257,246.954 364.377 C 250.140 373.187,255.042 374.216,296.498 374.776 C 336.080 375.310,345.791 373.906,349.238 367.149 C 355.615 354.650,337.294 342.057,309.433 339.787 C 304.953 339.423,300.910 339.008,300.448 338.867 C 299.987 338.725,297.676 338.852,295.313 339.149 " stroke="none" fill="#a9afbb" fill-rule="evenodd"></path><path id="path8" d="" stroke="none" fill="#8e8ec6" fill-rule="evenodd"></path><path id="path9" d="" stroke="none" fill="#a6a6b3" fill-rule="evenodd"></path></g></svg>